<?xml version="1.0" standalone="no"?>
<!DOCTYPE svg PUBLIC "-//W3C//DTD SVG 20010904//EN"
 "http://www.w3.org/TR/2001/REC-SVG-20010904/DTD/svg10.dtd">
<svg version="1.0" xmlns="http://www.w3.org/2000/svg"
 width="1536.000000pt" height="1024.000000pt" viewBox="0 0 1536.000000 1024.000000"
 preserveAspectRatio="xMidYMid meet">

<g transform="translate(0.000000,1024.000000) scale(0.100000,-0.100000)"
fill="#000000" stroke="none">
<path d="M8663 8820 c-26 -11 -43 -40 -43 -74 0 -25 28 -50 83 -74 19 -8 27
-18 25 -30 -4 -18 -32 -21 -80 -7 -25 6 -28 5 -28 -19 0 -34 37 -50 100 -43
51 6 80 34 80 77 0 35 -21 57 -77 81 -66 28 -48 63 22 42 31 -10 33 -9 38 14
3 16 -1 27 -14 33 -22 12 -76 12 -106 0z"/>
<path d="M8860 8700 l0 -130 30 0 30 0 0 130 0 130 -30 0 -30 0 0 -130z"/>
<path d="M9000 8700 l0 -130 48 0 c111 0 162 40 162 128 0 90 -49 132 -155
132 l-55 0 0 -130z m128 58 c16 -14 16 -103 -1 -117 -8 -6 -24 -12 -38 -13
-23 -3 -24 -1 -25 67 0 39 2 74 4 78 4 9 41 0 60 -15z"/>
<path d="M9276 8703 l3 -128 31 -3 30 -3 0 130 0 131 -33 0 -33 0 2 -127z"/>
<path d="M9532 8703 l3 -128 33 -3 32 -3 0 130 0 131 -35 0 -36 0 3 -127z"/>
<path d="M9680 8700 l0 -130 30 0 c29 0 30 2 30 44 l0 45 43 3 c37 3 42 6 42
28 0 22 -5 25 -42 28 -38 3 -43 6 -43 28 0 22 4 24 45 24 43 0 45 1 45 30 l0
30 -75 0 -75 0 0 -130z"/>
<path d="M9900 8700 l0 -130 25 0 c25 0 25 1 25 83 l0 82 46 -82 c41 -75 48
-83 75 -83 l29 0 0 130 0 130 -31 0 -31 0 4 -75 c2 -41 0 -75 -4 -75 -5 0 -8
4 -8 9 0 4 -17 38 -37 75 -32 57 -41 66 -65 66 l-28 0 0 -130z"/>
<path d="M10180 8700 l0 -130 30 0 30 0 0 130 0 130 -30 0 -30 0 0 -130z"/>
<path d="M8578 8053 l-3 -417 -29 -7 c-16 -5 -45 -23 -65 -42 -21 -20 -65 -45
-109 -60 -40 -15 -88 -35 -106 -44 -30 -16 -177 -146 -405 -358 -62 -58 -94
-79 -176 -115 -144 -62 -616 -234 -800 -291 -49 -15 -139 -43 -200 -62 -60
-19 -190 -60 -287 -91 -242 -77 -513 -209 -1038 -509 -261 -148 -259 -146
-489 -404 -45 -51 -96 -101 -114 -112 -63 -38 -963 -312 -1217 -370 -52 -12
-101 -26 -109 -31 -20 -11 20 -60 219 -265 146 -152 158 -167 214 -275 32 -63
77 -140 99 -170 63 -86 288 -304 338 -328 36 -16 79 -22 244 -31 284 -16 545
-49 758 -96 163 -37 212 -39 432 -16 454 46 586 47 1670 6 215 -8 458 -17 540
-20 83 -3 184 -8 226 -11 l77 -6 -29 104 c-57 200 -262 801 -336 982 -93 228
-123 275 -211 334 -80 54 -179 91 -472 173 -140 39 -309 87 -374 105 -124 35
-163 53 -108 52 39 -1 79 15 167 66 38 23 130 62 205 87 74 26 179 65 232 87
54 23 113 44 132 47 34 7 35 6 106 -90 99 -132 158 -191 206 -204 82 -24 413
-25 674 -3 135 12 310 26 390 32 156 11 211 22 476 94 95 25 226 57 292 70
135 28 196 45 512 144 328 103 382 115 570 132 257 23 380 52 519 127 57 30
111 52 120 50 9 -3 102 -30 206 -60 105 -30 245 -71 310 -92 66 -20 140 -43
165 -50 l45 -14 -25 21 c-14 11 -23 22 -21 25 4 4 -15 58 -31 88 -8 13 -8 20
0 23 6 2 8 10 5 18 -3 9 -21 14 -54 14 -64 0 -114 25 -134 67 -15 30 -15 38 0
91 30 105 17 128 -84 153 -61 15 -106 62 -116 119 -12 75 -54 193 -78 218 -26
28 -19 35 63 58 86 24 160 55 161 68 1 6 0 19 -1 29 -2 26 17 45 72 73 95 48
131 138 89 222 -10 20 -23 60 -30 87 -7 28 -26 67 -42 88 -17 21 -37 57 -45
81 l-15 44 -60 -14 c-87 -20 -151 -22 -264 -9 -55 7 -114 9 -132 4 -18 -4 -33
-5 -33 -3 0 2 -21 -9 -47 -24 -104 -61 -164 -68 -208 -22 -77 80 -195 80 -279
-2 -73 -70 -137 -101 -247 -118 -96 -14 -195 19 -214 71 -13 37 -57 69 -95 69
-65 0 -286 -82 -274 -102 3 -4 -1 -5 -8 -3 -20 8 -58 -32 -58 -61 0 -14 9 -39
21 -55 11 -16 17 -33 14 -39 -4 -6 -35 -23 -69 -39 -35 -16 -66 -34 -70 -40
-5 -7 -1 -9 8 -5 9 3 16 1 16 -5 0 -6 -6 -11 -13 -11 -8 0 -24 -11 -37 -25
-13 -14 -29 -25 -37 -25 -7 0 -13 -8 -14 -17 0 -11 -3 -13 -6 -5 -2 6 -9 12
-14 12 -6 0 -8 -4 -5 -9 3 -5 -6 -8 -19 -8 -20 0 -23 2 -14 13 7 9 8 14 1 14
-6 0 -18 3 -28 7 -13 5 -15 3 -9 -7 5 -9 4 -11 -4 -6 -6 4 -9 11 -6 15 2 4
-19 20 -48 34 -37 18 -54 22 -59 14 -5 -8 -8 -6 -8 6 0 13 -9 17 -40 17 -91 0
-229 -47 -231 -79 0 -9 -3 -11 -5 -4 -7 15 -157 -26 -222 -60 -194 -104 -226
-112 -289 -71 -23 15 -46 37 -53 48 -7 14 -9 15 -6 4 3 -10 1 -18 -4 -18 -6 0
-10 5 -10 11 0 5 -4 8 -9 5 -5 -3 -8 6 -8 20 0 18 2 22 8 13 4 -7 12 -10 16
-5 4 4 -7 21 -26 38 -32 29 -36 30 -95 23 -79 -9 -137 -9 -209 0 -51 7 -61 5
-80 -13 -21 -19 -43 -26 -78 -23 -8 0 -26 16 -39 34 l-24 32 33 -27 c39 -34
62 -35 101 -6 33 24 103 28 154 8 21 -8 46 -7 102 5 102 21 145 3 186 -80 51
-101 127 -102 290 -3 31 19 94 45 140 58 46 13 116 38 156 56 93 42 178 59
230 44 22 -5 70 -26 107 -45 94 -49 138 -47 177 11 20 31 43 48 88 67 33 15
60 30 60 34 0 3 -9 26 -20 49 -32 65 -17 85 104 144 166 81 278 96 314 42 9
-14 36 -45 60 -69 l42 -43 76 0 c58 0 91 6 142 26 71 29 147 77 156 101 9 23
87 53 139 53 55 0 99 -16 144 -54 51 -43 77 -42 173 5 94 47 123 50 297 34
105 -9 241 8 250 32 10 25 -49 146 -92 188 -27 27 -74 55 -148 87 -121 54
-154 62 -210 53 -44 -8 -107 -58 -107 -86 0 -30 -66 -53 -112 -39 -41 12 -61
6 -92 -29 -29 -32 -61 -26 -107 19 -42 40 -112 72 -186 85 -55 9 -83 -1 -83
-28 0 -46 -12 -51 -85 -36 -73 14 -98 7 -103 -30 -3 -18 -10 -21 -48 -21 -29
0 -60 -9 -92 -27 l-48 -27 -41 41 c-59 59 -97 68 -204 46 l-86 -17 -73 47
c-41 26 -79 47 -85 47 -24 0 -65 42 -65 65 0 12 11 43 25 66 26 47 31 74 15
84 -5 3 -52 -15 -105 -42 l-94 -47 -28 20 c-25 19 -29 29 -33 89 -9 117 -57
117 -135 -1 -27 -41 -90 -115 -140 -163 -84 -81 -318 -253 -427 -314 -27 -15
-68 -38 -93 -52 l-45 -26 0 391 0 390 815 0 c718 0 815 2 815 15 0 13 -99 15
-830 15 l-830 0 -2 -417z m1636 -441 c3 -5 -1 -9 -9 -9 -8 0 -15 4 -15 9 0 4
4 8 9 8 6 0 12 -4 15 -8z m1600 -78 c5 -14 4 -15 -9 -4 -17 14 -19 20 -6 20 5
0 12 -7 15 -16z m51 -124 c17 -33 20 -54 5 -45 -6 4 -8 10 -5 14 2 5 -2 17
-10 27 -15 19 -19 34 -10 34 2 0 11 -13 20 -30z m-18 -32 c-3 -8 -6 -5 -6 6
-1 11 2 17 5 13 3 -3 4 -12 1 -19z m-2910 -243 c0 -8 -7 -15 -15 -15 -12 0
-12 3 -2 15 7 8 13 15 15 15 1 0 2 -7 2 -15z m2779 -48 c-3 -21 -17 -38 -27
-31 -6 4 -4 13 5 23 9 10 13 21 9 26 -5 4 -3 5 4 2 6 -4 10 -13 9 -20z m-3875
-17 c-13 -11 -17 -20 -10 -20 7 0 10 -3 6 -6 -3 -3 -11 -3 -18 1 -8 6 -5 13
12 26 32 25 40 24 10 -1z m3724 -40 c3 -6 -6 -15 -20 -20 -33 -13 -38 -13 -30
0 3 6 16 10 28 10 18 0 19 2 7 10 -9 6 -10 10 -3 10 6 0 15 -5 18 -10z m-3808
-37 c0 -7 -4 -13 -8 -13 -4 0 -9 6 -12 13 -3 8 0 14 7 14 7 0 13 -6 13 -14z
m-37 -3 c0 -15 -36 -30 -72 -29 -31 0 -31 1 -10 10 13 5 29 6 34 2 6 -3 8 -1
4 5 -5 9 7 16 37 21 4 0 7 -3 7 -9z m3765 -59 c-6 -5 -25 10 -25 20 0 5 6 4
14 -3 8 -7 12 -15 11 -17z m-3970 -32 c2 -11 -11 -15 -54 -16 l-56 -2 39 14
c21 8 43 12 49 8 6 -4 7 -1 2 7 -5 8 -3 11 5 8 7 -2 14 -11 15 -19z m4015 -26
c1 -10 7 -35 14 -56 11 -30 11 -36 1 -27 -10 8 -14 7 -18 -2 -2 -7 -6 13 -8
45 -2 31 -1 57 4 57 4 0 7 -8 7 -17z m-4170 -27 c0 -2 -13 -6 -29 -8 -17 -2
-28 -1 -25 4 5 8 54 12 54 4z m-79 -19 c-6 -8 -8 -16 -5 -19 3 -3 -15 -8 -40
-9 -67 -6 -35 19 53 40 2 1 -2 -5 -8 -12z m-181 -61 c0 -2 -7 -7 -16 -10 -8
-3 -12 -2 -9 4 6 10 25 14 25 6z m-50 -31 c-8 -9 -29 -15 -58 -15 -48 0 -53 6
-12 14 14 2 36 9 50 14 30 12 37 8 20 -13z m4487 5 c1 -11 -2 -20 -8 -20 -5 0
-9 9 -9 20 0 11 4 20 8 20 4 0 8 -9 9 -20z m-4417 6 c0 -2 -7 -7 -16 -10 -8
-3 -12 -2 -9 4 6 10 25 14 25 6z m4447 -18 c-3 -8 -6 -5 -6 6 -1 11 2 17 5 13
3 -3 4 -12 1 -19z m-3229 -30 l3 -36 -34 10 c-49 15 -82 4 -97 -31 -24 -59 16
-126 64 -108 20 8 21 37 1 37 -9 0 -15 9 -15 25 0 23 3 25 50 25 l50 0 0 -64
c0 -36 -5 -68 -10 -71 -6 -4 -34 -9 -64 -12 -99 -10 -156 38 -156 132 0 91 50
136 145 132 l60 -2 3 -37z m162 -57 c0 -59 4 -102 11 -106 5 -4 21 -4 35 -1
23 6 24 9 24 106 l0 100 40 0 40 0 0 -77 c0 -142 -31 -193 -116 -193 -34 0
-50 6 -73 28 -29 26 -30 31 -35 135 l-4 107 39 0 39 0 0 -99z m390 69 c0 -29
-2 -30 -45 -30 -38 0 -45 -3 -45 -20 0 -17 7 -20 46 -20 45 0 45 0 42 -32 -3
-32 -5 -33 -45 -32 -39 1 -43 -1 -43 -22 0 -22 4 -24 50 -24 49 0 50 -1 50
-30 l0 -30 -90 0 -90 0 0 135 0 135 85 0 85 0 0 -30z m140 -75 l0 -105 50 0
c49 0 50 -1 50 -30 l0 -30 -85 0 -85 0 0 135 0 135 35 0 35 0 0 -105z m269 30
c13 -42 25 -74 27 -72 3 2 15 35 28 73 l23 69 41 3 42 3 0 -120 c0 -65 3 -126
6 -135 5 -13 -1 -16 -30 -16 l-36 0 -1 58 c-1 31 -1 68 0 82 0 14 -11 -8 -25
-48 -24 -67 -28 -73 -52 -70 -22 3 -29 13 -48 68 l-22 65 -1 -77 -1 -78 -30 0
-30 0 0 135 0 135 43 0 43 0 23 -75z m311 -60 l0 -135 -35 0 -35 0 0 135 0
135 35 0 35 0 0 -135z m189 73 c33 -96 35 -97 60 -13 l22 75 44 0 45 0 0 -135
0 -135 -35 0 -35 0 -1 78 -1 77 -23 -70 c-20 -60 -26 -70 -46 -70 -20 0 -27
10 -47 65 -13 35 -24 65 -25 66 -1 2 -1 -31 1 -72 l4 -74 -36 0 -36 0 0 58 c0
33 3 93 6 135 l7 77 38 0 c37 0 38 -1 58 -62z m-312 20 c-3 -8 -6 -5 -6 6 -1
11 2 17 5 13 3 -3 4 -12 1 -19z m-2599 -4 c-4 -3 -8 -4 -10 -2 -2 2 -16 -5
-31 -15 -15 -9 -27 -14 -27 -10 0 4 -6 -1 -12 -10 -9 -11 -25 -16 -50 -14 -35
2 -43 16 -10 18 9 0 40 9 67 19 52 18 83 24 73 14z m2639 -91 c-2 -21 -4 -6
-4 32 0 39 2 55 4 38 2 -18 2 -50 0 -70z m-2654 50 c-3 -7 -6 -13 -8 -13 -2 0
-5 6 -8 13 -3 8 1 14 8 14 7 0 11 -6 8 -14z m1995 0 c-10 -2 -28 -2 -40 0 -13
2 -5 4 17 4 22 1 32 -1 23 -4z m-461 -35 c-3 -8 -6 -5 -6 6 -1 11 2 17 5 13 3
-3 4 -12 1 -19z m260 -10 c-3 -7 -5 -2 -5 12 0 14 2 19 5 13 2 -7 2 -19 0 -25z
m820 0 c-3 -7 -5 -2 -5 12 0 14 2 19 5 13 2 -7 2 -19 0 -25z m-2810 16 c-3 -3
-12 -4 -19 -1 -8 3 -5 6 6 6 11 1 17 -2 13 -5z m4944 -11 c13 -16 12 -17 -3
-4 -10 7 -18 15 -18 17 0 8 8 3 21 -13z m-4991 -3 c-8 -5 -22 -9 -30 -9 -10 0
-8 3 5 9 27 12 43 12 25 0z m2077 -37 c-3 -10 -5 -2 -5 17 0 19 2 27 5 18 2
-10 2 -26 0 -35z m-2136 18 c-7 -5 -11 -13 -8 -18 3 -5 -22 -9 -56 -10 l-62
-1 55 18 c61 21 95 26 71 11z m62 -6 c-3 -9 -8 -14 -10 -11 -3 3 -2 9 2 15 9
16 15 13 8 -4z m1774 -17 c-3 -7 -5 -2 -5 12 0 14 2 19 5 13 2 -7 2 -19 0 -25z
m3263 8 c0 -8 3 -7 8 1 5 9 20 9 55 1 26 -5 45 -14 41 -19 -3 -5 -1 -9 4 -9
11 0 7 -53 -7 -100 -10 -33 -10 -33 -6 16 6 84 2 91 -63 98 -76 7 -82 8 -82
16 0 4 11 8 25 8 14 0 25 -6 25 -12z m-3293 -63 c-3 -10 -5 -2 -5 17 0 19 2
27 5 18 2 -10 2 -26 0 -35z m466 40 c-7 -2 -19 -2 -25 0 -7 3 -2 5 12 5 14 0
19 -2 13 -5z m44 1 c-3 -3 -12 -4 -19 -1 -8 3 -5 6 6 6 11 1 17 -2 13 -5z
m600 -16 c-3 -8 -6 -5 -6 6 -1 11 2 17 5 13 3 -3 4 -12 1 -19z m40 -45 c-2
-16 -4 -5 -4 22 0 28 2 40 4 28 2 -13 2 -35 0 -50z m-3127 36 c0 -5 -3 -8 -7
-8 -26 4 -43 -2 -37 -13 5 -9 2 -9 -9 1 -15 12 -21 9 -19 -9 0 -4 -9 -6 -21
-7 -12 -1 -32 -4 -44 -8 -14 -5 -23 -3 -23 3 0 6 27 19 59 29 69 22 101 25
101 12z m2883 -39 c3 -11 1 -18 -4 -14 -5 3 -9 12 -9 20 0 20 7 17 13 -6z
m-3111 -32 c-7 -7 -12 -20 -12 -29 0 -9 -7 -20 -16 -23 -10 -4 -13 -2 -8 6 5
8 0 9 -17 4 -73 -23 -80 -14 -14 18 78 39 84 41 67 24z m-172 -88 c0 -5 -5 -9
-11 -7 -6 1 -14 -4 -16 -11 -3 -8 2 -10 14 -6 15 5 15 4 3 -5 -21 -14 -37 4
-20 24 14 17 30 20 30 5z m5811 -66 c13 -7 19 -13 13 -14 -19 0 -64 41 -64 58
1 13 4 11 14 -7 7 -13 24 -30 37 -37z m-5871 31 c-7 -8 -22 -14 -34 -14 -17 1
-17 2 -3 6 9 2 17 9 17 14 0 5 7 9 16 9 14 0 14 -3 4 -15z m-97 -59 c3 -8 0
-17 -7 -19 -10 -4 -12 1 -9 14 6 23 9 24 16 5z m-36 -14 c0 -12 -10 -18 -26
-19 -23 -2 -24 -1 -6 7 14 6 15 9 5 10 -13 1 -3 8 27 19 1 1 1 -7 0 -17z
m6141 -4 c2 -8 -4 -15 -12 -15 -8 0 -12 6 -9 15 5 12 2 12 -15 3 -12 -7 -23
-7 -27 -2 -3 5 5 11 17 14 32 6 43 3 46 -15z m6 -73 c11 0 21 -6 24 -12 2 -9
-7 -13 -25 -13 -24 0 -29 4 -30 28 -1 16 1 21 5 12 4 -8 16 -15 26 -15z
m-6310 -3 c2 -4 -3 -8 -12 -8 -9 0 -28 -3 -42 -7 -20 -5 -19 -4 5 8 35 17 42
18 49 7z m28 -47 c3 -13 1 -22 -3 -19 -9 5 -13 44 -5 44 2 0 6 -11 8 -25z
m-572 -1190 c0 -33 -2 -35 -35 -35 l-35 0 0 -100 0 -100 -35 0 -35 0 0 100 0
100 -35 0 c-33 0 -35 2 -35 35 l0 35 105 0 105 0 0 -35z m219 -90 c23 -68 41
-129 41 -135 0 -5 -16 -10 -36 -10 -30 0 -37 4 -46 30 -9 27 -14 30 -46 27
-29 -3 -38 -9 -42 -28 -5 -19 -13 -25 -43 -27 -20 -2 -37 -1 -37 2 0 8 80 248
86 257 3 5 23 9 44 9 l39 0 40 -125z m209 45 c24 -44 44 -80 45 -80 1 0 1 36
-1 80 l-4 80 36 0 36 0 0 -135 0 -135 -35 0 c-37 0 -53 19 -106 120 -12 22
-22 40 -23 40 0 0 0 -36 2 -80 l4 -80 -34 0 -34 0 1 123 c2 156 0 147 38 147
30 0 35 -5 75 -80z m492 45 c0 -33 -2 -35 -35 -35 l-35 0 0 -100 0 -100 -35 0
-35 0 0 100 0 100 -35 0 c-33 0 -35 2 -35 35 l0 35 105 0 105 0 0 -35z m219
-88 c23 -67 41 -128 41 -135 0 -7 -14 -12 -36 -12 -30 0 -37 4 -45 30 -9 25
-16 30 -45 30 -30 0 -35 -4 -40 -30 -6 -27 -10 -30 -46 -30 -32 0 -39 3 -34
15 3 9 20 62 37 118 42 137 42 137 89 137 l38 0 41 -123z m199 64 c20 -33 42
-67 47 -77 8 -12 9 5 7 60 l-4 76 36 0 36 0 0 -135 0 -135 -35 0 c-32 0 -37 4
-79 78 l-45 77 5 -77 6 -78 -36 0 -36 0 0 135 0 135 30 0 c26 0 36 -8 68 -59z"/>
<path d="M5227 4884 c-3 -16 -9 -37 -12 -46 -6 -14 -2 -18 19 -18 14 0 26 1
26 3 0 1 -6 22 -14 46 -13 44 -13 44 -19 15z"/>
<path d="M6143 4863 c-10 -39 -9 -40 13 -40 27 0 27 -1 10 47 l-13 34 -10 -41z"/>
</g>
</svg>
